HIERARCHY
ROOT mixamorig:Hips
{
	OFFSET -0.000008 104.274872 1.554316
	CHANNELS 6 Xposition Yposition Zposition Xrotation Yrotation Zrotation
	JOINT mixamorig:Spine
	{
		OFFSET -0.000005 10.181595 0.131519
		CHANNELS 6 Xposition Yposition Zposition Xrotation Yrotation Zrotation
		JOINT mixamorig:Spine1
		{
			OFFSET -0.000000 9.893959 -1.470707
			CHANNELS 6 Xposition Yposition Zposition Xrotation Yrotation Zrotation
			JOINT mixamorig:Spine2
			{
				OFFSET -0.000000 9.220757 -1.370641
				CHANNELS 6 Xposition Yposition Zposition Xrotation Yrotation Zrotation
				JOINT mixamorig:Neck
				{
					OFFSET 0.000001 16.740417 -2.049036
					CHANNELS 6 Xposition Yposition Zposition Xrotation Yrotation Zrotation
					JOINT mixamorig:Head
					{
						OFFSET 0.000000 9.617874 1.685006
						CHANNELS 6 Xposition Yposition Zposition Xrotation Yrotation Zrotation
						JOINT mixamorig:HeadTop_End
						{
							OFFSET 0.000002 22.037354 7.501101
							CHANNELS 6 Xposition Yposition Zposition Xrotation Yrotation Zrotation
							End Site
							{
								OFFSET 0.000168 2310.654297 -282.823242
							}
						}
					}
				}
				JOINT mixamorig:RightShoulder
				{
					OFFSET -4.569970 11.014908 -2.160885
					CHANNELS 6 Xposition Yposition Zposition Xrotation Yrotation Zrotation
					JOINT mixamorig:RightArm
					{
						OFFSET -10.592851 -0.524811 -2.232101
						CHANNELS 6 Xposition Yposition Zposition Xrotation Yrotation Zrotation
						JOINT mixamorig:RightForeArm
						{
							OFFSET -27.841511 0.000031 -0.000004
							CHANNELS 6 Xposition Yposition Zposition Xrotation Yrotation Zrotation
							JOINT mixamorig:RightHand
							{
								OFFSET -28.328831 -0.000015 0.000015
								CHANNELS 6 Xposition Yposition Zposition Xrotation Yrotation Zrotation
								JOINT mixamorig:RightHandThumb1
								{
									OFFSET -2.464806 -1.573990 2.681852
									CHANNELS 6 Xposition Yposition Zposition Xrotation Yrotation Zrotation
									JOINT mixamorig:RightHandThumb2
									{
										OFFSET -3.215179 -1.872803 1.924282
										CHANNELS 6 Xposition Yposition Zposition Xrotation Yrotation Zrotation
										JOINT mixamorig:RightHandThumb3
										{
											OFFSET -2.654831 -1.527969 1.512609
											CHANNELS 6 Xposition Yposition Zposition Xrotation Yrotation Zrotation
											JOINT mixamorig:RightHandThumb4
											{
												OFFSET -2.018814 -1.152008 1.108052
												CHANNELS 6 Xposition Yposition Zposition Xrotation Yrotation Zrotation
												End Site
												{
													OFFSET -188.809540 -114.533607 132.431396
												}
											}
										}
									}
								}
								JOINT mixamorig:RightHandIndex1
								{
									OFFSET -9.108284 -0.517868 2.259835
									CHANNELS 6 Xposition Yposition Zposition Xrotation Yrotation Zrotation
									JOINT mixamorig:RightHandIndex2
									{
										OFFSET -3.699989 0.000000 0.001215
										CHANNELS 6 Xposition Yposition Zposition Xrotation Yrotation Zrotation
										JOINT mixamorig:RightHandIndex3
										{
											OFFSET -2.850006 0.000031 -0.000522
											CHANNELS 6 Xposition Yposition Zposition Xrotation Yrotation Zrotation
											JOINT mixamorig:RightHandIndex4
											{
												OFFSET -2.772186 -0.000015 -0.000020
												CHANNELS 6 Xposition Yposition Zposition Xrotation Yrotation Zrotation
												End Site
												{
													OFFSET -277.218445 0.000000 -0.050231
												}
											}
										}
									}
								}
								JOINT mixamorig:RightHandMiddle1
								{
									OFFSET -9.532516 -0.000031 -0.000023
									CHANNELS 6 Xposition Yposition Zposition Xrotation Yrotation Zrotation
									JOINT mixamorig:RightHandMiddle2
									{
										OFFSET -3.700005 -0.000015 0.003713
										CHANNELS 6 Xposition Yposition Zposition Xrotation Yrotation Zrotation
										JOINT mixamorig:RightHandMiddle3
										{
											OFFSET -2.949974 0.000015 -0.002054
											CHANNELS 6 Xposition Yposition Zposition Xrotation Yrotation Zrotation
											JOINT mixamorig:RightHandMiddle4
											{
												OFFSET -2.946640 0.000000 -0.000156
												CHANNELS 6 Xposition Yposition Zposition Xrotation Yrotation Zrotation
												End Site
												{
													OFFSET -294.664337 0.000000 -0.113670
												}
											}
										}
									}
								}
								JOINT mixamorig:RightHandRing1
								{
									OFFSET -9.103600 -0.043076 -1.865134
									CHANNELS 6 Xposition Yposition Zposition Xrotation Yrotation Zrotation
									JOINT mixamorig:RightHandRing2
									{
										OFFSET -3.379288 0.000000 -0.001055
										CHANNELS 6 Xposition Yposition Zposition Xrotation Yrotation Zrotation
										JOINT mixamorig:RightHandRing3
										{
											OFFSET -2.889687 -0.000015 0.000379
											CHANNELS 6 Xposition Yposition Zposition Xrotation Yrotation Zrotation
											JOINT mixamorig:RightHandRing4
											{
												OFFSET -2.638809 -0.000015 0.000941
												CHANNELS 6 Xposition Yposition Zposition Xrotation Yrotation Zrotation
												End Site
												{
													OFFSET -263.880371 0.000000 0.516020
												}
											}
										}
									}
								}
								JOINT mixamorig:RightHandPinky1
								{
									OFFSET -8.076683 -0.486710 -3.806280
									CHANNELS 6 Xposition Yposition Zposition Xrotation Yrotation Zrotation
									JOINT mixamorig:RightHandPinky2
									{
										OFFSET -3.600014 -0.000015 -0.003747
										CHANNELS 6 Xposition Yposition Zposition Xrotation Yrotation Zrotation
										JOINT mixamorig:RightHandPinky3
										{
											OFFSET -2.099983 0.000000 -0.005739
											CHANNELS 6 Xposition Yposition Zposition Xrotation Yrotation Zrotation
											JOINT mixamorig:RightHandPinky4
											{
												OFFSET -2.115768 -0.000031 -0.003680
												CHANNELS 6 Xposition Yposition Zposition Xrotation Yrotation Zrotation
												End Site
												{
													OFFSET -211.577087 0.000000 -0.350686
												}
											}
										}
									}
								}
							}
						}
					}
				}
				JOINT mixamorig:LeftShoulder
				{
					OFFSET 4.570447 11.014725 -2.160855
					CHANNELS 6 Xposition Yposition Zposition Xrotation Yrotation Zrotation
					JOINT mixamorig:LeftArm
					{
						OFFSET 10.592371 -0.524597 -2.232119
						CHANNELS 6 Xposition Yposition Zposition Xrotation Yrotation Zrotation
						JOINT mixamorig:LeftForeArm
						{
							OFFSET 27.841532 -0.000031 0.000026
							CHANNELS 6 Xposition Yposition Zposition Xrotation Yrotation Zrotation
							JOINT mixamorig:LeftHand
							{
								OFFSET 28.328846 -0.000061 0.000022
								CHANNELS 6 Xposition Yposition Zposition Xrotation Yrotation Zrotation
								JOINT mixamorig:LeftHandThumb1
								{
									OFFSET 2.466141 -1.576172 2.681732
									CHANNELS 6 Xposition Yposition Zposition Xrotation Yrotation Zrotation
									JOINT mixamorig:LeftHandThumb2
									{
										OFFSET 3.217812 -1.872070 1.916482
										CHANNELS 6 Xposition Yposition Zposition Xrotation Yrotation Zrotation
										JOINT mixamorig:LeftHandThumb3
										{
											OFFSET 2.656029 -1.528778 1.514513
											CHANNELS 6 Xposition Yposition Zposition Xrotation Yrotation Zrotation
											JOINT mixamorig:LeftHandThumb4
											{
												OFFSET 2.020889 -1.154053 1.115139
												CHANNELS 6 Xposition Yposition Zposition Xrotation Yrotation Zrotation
												End Site
												{
													OFFSET 190.885437 -115.081749 130.048782
												}
											}
										}
									}
								}
								JOINT mixamorig:LeftHandIndex1
								{
									OFFSET 9.109314 -0.518021 2.259871
									CHANNELS 6 Xposition Yposition Zposition Xrotation Yrotation Zrotation
									JOINT mixamorig:LeftHandIndex2
									{
										OFFSET 3.699989 0.000000 -0.000322
										CHANNELS 6 Xposition Yposition Zposition Xrotation Yrotation Zrotation
										JOINT mixamorig:LeftHandIndex3
										{
											OFFSET 2.850006 0.000000 0.000352
											CHANNELS 6 Xposition Yposition Zposition Xrotation Yrotation Zrotation
											JOINT mixamorig:LeftHandIndex4
											{
												OFFSET 2.774864 -0.000031 -0.000027
												CHANNELS 6 Xposition Yposition Zposition Xrotation Yrotation Zrotation
												End Site
												{
													OFFSET 277.486267 0.000000 -0.009857
												}
											}
										}
									}
								}
								JOINT mixamorig:LeftHandMiddle1
								{
									OFFSET 9.533394 0.000061 0.000044
									CHANNELS 6 Xposition Yposition Zposition Xrotation Yrotation Zrotation
									JOINT mixamorig:LeftHandMiddle2
									{
										OFFSET 3.699989 -0.000015 -0.000231
										CHANNELS 6 Xposition Yposition Zposition Xrotation Yrotation Zrotation
										JOINT mixamorig:LeftHandMiddle3
										{
											OFFSET 2.949997 -0.000015 -0.000059
											CHANNELS 6 Xposition Yposition Zposition Xrotation Yrotation Zrotation
											JOINT mixamorig:LeftHandMiddle4
											{
												OFFSET 2.952896 0.000031 0.000063
												CHANNELS 6 Xposition Yposition Zposition Xrotation Yrotation Zrotation
												End Site
												{
													OFFSET 295.289337 0.000000 0.022810
												}
											}
										}
									}
								}
								JOINT mixamorig:LeftHandRing1
								{
									OFFSET 9.104523 -0.042999 -1.865074
									CHANNELS 6 Xposition Yposition Zposition Xrotation Yrotation Zrotation
									JOINT mixamorig:LeftHandRing2
									{
										OFFSET 3.150009 -0.000031 0.000043
										CHANNELS 6 Xposition Yposition Zposition Xrotation Yrotation Zrotation
										JOINT mixamorig:LeftHandRing3
										{
											OFFSET 2.949982 -0.000015 0.000040
											CHANNELS 6 Xposition Yposition Zposition Xrotation Yrotation Zrotation
											JOINT mixamorig:LeftHandRing4
											{
												OFFSET 2.644348 0.000000 0.000057
												CHANNELS 6 Xposition Yposition Zposition Xrotation Yrotation Zrotation
												End Site
												{
													OFFSET 264.434631 0.000000 0.012105
												}
											}
										}
									}
								}
								JOINT mixamorig:LeftHandPinky1
								{
									OFFSET 8.077789 -0.486847 -3.806259
									CHANNELS 6 Xposition Yposition Zposition Xrotation Yrotation Zrotation
									JOINT mixamorig:LeftHandPinky2
									{
										OFFSET 3.599953 0.000031 0.014727
										CHANNELS 6 Xposition Yposition Zposition Xrotation Yrotation Zrotation
										JOINT mixamorig:LeftHandPinky3
										{
											OFFSET 2.100021 0.000015 0.007705
											CHANNELS 6 Xposition Yposition Zposition Xrotation Yrotation Zrotation
											JOINT mixamorig:LeftHandPinky4
											{
												OFFSET 2.125504 0.000031 0.007517
												CHANNELS 6 Xposition Yposition Zposition Xrotation Yrotation Zrotation
												End Site
												{
													OFFSET 212.550781 0.000000 0.625752
												}
											}
										}
									}
								}
							}
						}
					}
				}
			}
		}
	}
	JOINT mixamorig:RightUpLeg
	{
		OFFSET -8.207787 -6.751648 -1.599560
		CHANNELS 6 Xposition Yposition Zposition Xrotation Yrotation Zrotation
		JOINT mixamorig:RightLeg
		{
			OFFSET -0.000002 -44.370117 0.345942
			CHANNELS 6 Xposition Yposition Zposition Xrotation Yrotation Zrotation
			JOINT mixamorig:RightFoot
			{
				OFFSET 0.000003 -44.423679 -3.043532
				CHANNELS 6 Xposition Yposition Zposition Xrotation Yrotation Zrotation
				JOINT mixamorig:RightToeBase
				{
					OFFSET -0.000002 -8.728671 10.710558
					CHANNELS 6 Xposition Yposition Zposition Xrotation Yrotation Zrotation
					JOINT mixamorig:RightToe_End
					{
						OFFSET -0.000001 -0.000679 9.278119
						CHANNELS 6 Xposition Yposition Zposition Xrotation Yrotation Zrotation
						End Site
						{
							OFFSET 0.000000 -0.067690 927.812134
						}
					}
				}
			}
		}
	}
	JOINT mixamorig:LeftUpLeg
	{
		OFFSET 8.207793 -6.751686 -1.599556
		CHANNELS 6 Xposition Yposition Zposition Xrotation Yrotation Zrotation
		JOINT mixamorig:LeftLeg
		{
			OFFSET -0.000004 -44.370014 0.346954
			CHANNELS 6 Xposition Yposition Zposition Xrotation Yrotation Zrotation
			JOINT mixamorig:LeftFoot
			{
				OFFSET -0.000001 -44.423672 -3.044401
				CHANNELS 6 Xposition Yposition Zposition Xrotation Yrotation Zrotation
				JOINT mixamorig:LeftToeBase
				{
					OFFSET -0.000002 -8.728669 10.710558
					CHANNELS 6 Xposition Yposition Zposition Xrotation Yrotation Zrotation
					JOINT mixamorig:LeftToe_End
					{
						OFFSET -0.000003 -0.000679 9.278133
						CHANNELS 6 Xposition Yposition Zposition Xrotation Yrotation Zrotation
						End Site
						{
							OFFSET 0.000000 -0.068021 927.813477
						}
					}
				}
			}
		}
	}
}
MOTION
Frames: 3
Frame Time: 0.033333
0.000006 104.270477 1.554256 0.000010 0.000003 -0.000113 -0.000005 10.181587 0.131522 0.000001 -0.000003 0.000084 -0.000000 9.893967 -1.470711 0.000001 0.000000 -0.000000 -0.000000 9.220802 -1.370642 0.000000 -0.000000 -0.000000 0.000001 16.740433 -2.049030 0.000000 -0.000000 -0.000000 0.000000 9.617859 1.685014 0.000000 0.000000 0.000000 0.000002 22.037384 7.501101 0.000000 -0.000000 0.000000 -4.569968 11.014880 -2.160881 0.000008 0.000001 -0.000038 -10.592785 -0.524838 -2.231755 73.137638 64.759544 -50.385264 -27.841497 -0.000013 0.000569 35.785058 101.274206 -42.965230 -28.328835 0.000006 0.000024 -0.000322 -0.000045 0.000007 -2.464451 -1.573671 2.682233 -58.151732 -173.134435 -41.701867 -3.214844 -1.872422 1.924620 123.756580 4.079775 126.099676 -2.654812 -1.527647 1.512981 136.576176 30.154360 70.516581 -2.018831 -1.152014 1.108068 -0.000003 0.000000 0.000004 -9.108355 -0.517783 2.260361 149.261927 24.993588 -77.912480 -3.700025 0.000063 0.001749 147.445575 25.338014 -75.105805 -2.850111 0.000158 -0.000009 145.185178 21.384677 -62.112333 -2.772169 -0.000017 -0.000017 0.000000 0.000001 -0.000004 -9.532592 0.000109 0.000473 143.247153 18.729834 -53.227767 -3.700083 0.000165 0.004201 141.677863 20.016115 -53.568719 -2.950083 0.000191 -0.001571 140.358161 19.071630 -49.956396 -2.946620 0.000000 -0.000159 0.000000 -0.000002 -0.000002 -9.103688 -0.042896 -1.864625 142.316294 17.938175 -49.514316 -3.379336 0.000198 -0.000560 143.227264 10.837005 -31.908742 -2.889782 0.000217 0.000855 141.811844 10.968052 -31.145123 -2.638819 -0.000017 0.000942 -0.000000 -0.000004 0.000001 -8.076740 -0.486506 -3.805789 139.560313 17.670367 -45.357644 -3.600042 0.000210 -0.003299 139.836990 7.424870 -19.140118 -2.100018 0.000190 -0.005232 138.752055 8.340167 -21.305127 -2.115757 -0.000046 -0.003679 -0.000002 0.000001 -0.000005 4.570446 11.014691 -2.160851 -0.000018 0.000010 -0.000021 10.592530 -0.524532 -2.232395 68.789772 -64.940517 47.078715 27.841766 -0.000070 -0.000123 222.520569 -78.896560 230.615955 28.328825 -0.000013 0.000021 0.000021 -0.000088 -0.000001 2.466150 -1.576161 2.681897 44.049406 123.513917 -99.790314 3.217747 -1.872045 1.916528 201.219613 51.867381 101.689878 2.656009 -1.528791 1.514613 217.050639 45.616942 82.685225 2.020880 -1.154082 1.115143 0.000000 0.000007 0.000004 9.109330 -0.518044 2.259927 171.803477 -21.854119 139.215006 3.700000 -0.000027 -0.000260 -10.320190 -155.805440 -45.615931 2.850040 0.000010 0.000410 -9.659392 -160.264064 308.177644 2.774880 -0.000030 -0.000029 -0.000002 0.000000 -0.000000 9.533394 0.000019 0.000108 173.100981 -18.845510 140.024643 3.700048 -0.000003 -0.000175 169.438265 -18.341542 -239.601889 2.950070 0.000003 -0.000005 -190.103972 -19.750083 126.170984 2.952881 -0.000029 0.000062 0.000001 -0.000001 0.000000 9.104483 -0.043035 -1.865001 176.906244 -19.523879 162.169031 3.149989 -0.000000 0.000103 172.789347 -11.136959 114.271749 2.949655 -0.000027 0.000135 -181.033194 -13.219392 171.115432 2.644331 0.000030 0.000055 -0.000001 -0.000001 0.000001 8.077654 -0.486877 -3.806163 180.341159 -25.326773 183.539969 3.599706 0.000014 0.014822 1.093993 -167.646556 13.474695 2.099755 -0.000012 0.007802 -179.451746 -14.652612 187.208327 2.125491 -0.000028 0.007514 0.000002 0.000001 0.000002 -8.207786 -6.751667 -1.599560 -0.077001 -0.000003 0.000080 -0.000002 -44.370110 0.345938 0.153719 -0.000000 -0.000000 0.000000 -44.423679 -3.043532 -0.076700 0.000000 -0.000002 -0.000006 -8.728667 10.710559 -0.000009 -0.000000 -0.000000 -0.000001 -0.000679 9.278123 0.000000 -0.000000 -0.000000 8.207792 -6.751710 -1.599556 -0.074518 -0.000003 0.000081 -0.000002 -44.370014 0.346960 0.148822 0.000002 0.000000 -0.000001 -44.423664 -3.044403 -0.074314 0.000000 -0.000002 -0.000004 -8.728671 10.710558 0.000007 -0.000000 -0.000000 0.000000 -0.000680 9.278137 -0.000000 0.000000 -0.000001 
0.000006 104.270477 1.554256 0.000010 0.000003 -0.000113 -0.000005 10.181587 0.131522 0.000001 -0.000003 0.000084 -0.000000 9.893967 -1.470711 0.000001 0.000000 -0.000000 -0.000000 9.220802 -1.370642 0.000000 -0.000000 -0.000000 0.000001 16.740433 -2.049030 0.000000 -0.000000 -0.000000 0.000000 9.617859 1.685014 0.000000 0.000000 0.000000 0.000002 22.037384 7.501101 0.000000 -0.000000 0.000000 -4.569968 11.014880 -2.160881 0.000008 0.000001 -0.000038 -10.592785 -0.524847 -2.231756 73.336137 65.082031 -50.820613 -27.841486 0.000012 0.000577 39.160637 102.251525 -47.616640 -28.328829 0.000021 0.000022 -0.000322 -0.000045 0.000007 -2.464432 -1.573684 2.682250 -56.473544 -169.103012 -34.421698 -3.214786 -1.872499 1.924659 126.186434 -6.789616 144.504181 -2.654752 -1.527625 1.512980 132.403244 26.038757 89.023081 -2.018826 -1.152004 1.108067 -0.000002 0.000002 0.000002 -9.108284 -0.517870 2.260395 162.924710 28.371895 -118.762127 -3.699955 -0.000005 0.001797 158.343210 28.414130 -105.767979 -2.850064 0.000087 0.000013 154.372370 23.186424 -84.094163 -2.772170 -0.000001 -0.000022 0.000000 -0.000005 -0.000000 -9.532551 0.000002 0.000520 157.022470 20.911720 -85.069419 -3.700009 0.000045 0.004251 156.109970 21.766309 -84.135554 -2.950077 0.000100 -0.001513 152.623937 20.229125 -72.413549 -2.946634 0.000001 -0.000151 -0.000001 0.000002 -0.000002 -9.103656 -0.042988 -1.864603 151.362852 21.078645 -72.018341 -3.379330 0.000137 -0.000526 151.643723 11.600374 -43.881162 -2.889785 0.000149 0.000896 147.896736 12.020427 -40.371414 -2.638809 -0.000010 0.000943 -0.000001 -0.000004 -0.000003 -8.076740 -0.486558 -3.805774 142.379227 23.449213 -62.284843 -3.600053 0.000196 -0.003277 141.990767 7.394154 -20.198604 -2.100033 0.000198 -0.005250 140.365469 8.781415 -23.400648 -2.115768 -0.000039 -0.003678 0.000000 -0.000004 -0.000003 4.570446 11.014691 -2.160851 -0.000018 0.000010 -0.000021 10.592525 -0.524545 -2.232400 68.808521 -65.109482 47.230126 27.841774 -0.000049 -0.000123 223.174915 -79.007517 231.275369 28.328833 -0.000029 0.000023 0.000021 -0.000088 -0.000001 2.466146 -1.576136 2.681893 34.709720 124.844834 -91.801055 3.217772 -1.872038 1.916534 210.098176 50.860242 91.729051 2.656012 -1.528807 1.514600 221.482339 43.919288 77.410898 2.020887 -1.154073 1.115147 0.000000 0.000003 0.000001 9.109338 -0.518018 2.259920 167.550633 -26.978720 131.049132 3.699919 -0.000042 -0.000237 -6.266624 -147.785828 -21.412771 2.849868 -0.000007 0.000446 -0.082806 -154.172191 359.634048 2.774884 -0.000032 -0.000028 0.000001 -0.000001 -0.000002 9.533423 0.000039 0.000097 169.570825 -22.978886 131.597692 3.699945 -0.000043 -0.000163 172.987928 -23.203363 -213.246798 2.949962 -0.000043 0.000020 -186.049927 -25.793502 154.020766 2.952870 -0.000014 0.000061 0.000002 -0.000000 0.000001 9.104484 -0.043053 -1.865004 175.749237 -28.037766 163.097869 3.149861 -0.000042 0.000127 176.470163 -10.970138 144.437683 2.949588 0.000042 0.000147 -178.666820 -12.904164 191.760061 2.644325 0.000030 0.000056 0.000002 0.000001 -0.000000 8.077715 -0.486888 -3.806168 176.027321 -40.377534 170.578114 3.599641 0.000092 0.014842 5.020600 -163.052994 34.594649 2.099735 0.000024 0.007813 -178.767730 -17.163386 190.575815 2.125506 -0.000016 0.007515 0.000001 0.000000 -0.000001 -8.207786 -6.751667 -1.599560 -0.077001 -0.000003 0.000080 -0.000002 -44.370110 0.345938 0.153719 -0.000000 -0.000000 0.000000 -44.423679 -3.043532 -0.076700 0.000000 -0.000002 -0.000006 -8.728667 10.710559 -0.000009 -0.000000 -0.000000 -0.000001 -0.000679 9.278123 0.000000 -0.000000 -0.000000 8.207792 -6.751710 -1.599556 -0.074518 -0.000003 0.000081 -0.000002 -44.370014 0.346960 0.148822 0.000002 0.000000 -0.000001 -44.423664 -3.044403 -0.074314 0.000000 -0.000002 -0.000004 -8.728671 10.710558 0.000007 -0.000000 -0.000000 0.000000 -0.000680 9.278137 -0.000000 0.000000 -0.000001 
0.000006 104.270477 1.554256 0.000010 0.000003 -0.000113 -0.000005 10.181587 0.131522 0.000001 -0.000003 0.000084 -0.000000 9.893967 -1.470711 0.000001 0.000000 -0.000000 -0.000000 9.220802 -1.370642 0.000000 -0.000000 -0.000000 0.000001 16.740433 -2.049030 0.000000 -0.000000 -0.000000 0.000000 9.617859 1.685014 0.000000 0.000000 0.000000 0.000002 22.037384 7.501101 0.000000 -0.000000 0.000000 -4.569968 11.014880 -2.160881 0.000008 0.000001 -0.000038 -10.592783 -0.524848 -2.231749 73.515218 65.639470 -51.443578 -27.841496 0.000004 0.000571 41.845574 102.219416 -50.719752 -28.328842 0.000021 0.000024 -0.000323 -0.000045 0.000007 -2.464440 -1.573663 2.682254 -56.902948 -171.073262 -36.882916 -3.214788 -1.872482 1.924670 126.109211 -4.707684 142.422353 -2.654773 -1.527630 1.512930 123.008483 28.165193 87.651824 -2.018818 -1.151983 1.108059 -0.000003 -0.000001 -0.000002 -9.108288 -0.517847 2.260409 162.636899 27.711321 -116.507892 -3.699934 -0.000029 0.001795 161.273033 28.426691 -111.920436 -2.850052 0.000072 0.000017 158.467028 22.548533 -88.089469 -2.772168 -0.000014 -0.000018 -0.000002 0.000002 -0.000001 -9.532557 0.000003 0.000535 157.071497 20.933328 -85.124368 -3.700035 0.000014 0.004253 158.918339 22.478489 -87.916699 -2.949969 0.000247 -0.001503 132.866509 -5.858460 -63.106939 -2.946623 0.000013 -0.000143 -0.000002 -0.000000 -0.000001 -9.103668 -0.042981 -1.864604 150.637445 21.471436 -71.070584 -3.379331 0.000105 -0.000539 151.597497 12.004028 -50.595552 -2.889777 0.000144 0.000921 150.891310 12.553347 -47.498344 -2.638813 0.000012 0.000932 0.000002 0.000001 -0.000001 -8.076752 -0.486552 -3.805776 139.794329 26.656114 -60.048967 -3.600049 0.000187 -0.003283 141.382225 7.975420 -21.050950 -2.100030 0.000196 -0.005239 140.761620 8.928063 -24.872189 -2.115768 -0.000029 -0.003678 -0.000000 -0.000003 -0.000003 4.570446 11.014691 -2.160851 -0.000018 0.000010 -0.000021 10.592528 -0.524540 -2.232398 69.457464 -65.565042 48.114154 27.841778 -0.000069 -0.000118 224.518714 -79.414773 232.475324 28.328823 -0.000014 0.000025 0.000022 -0.000089 0.000000 2.466110 -1.576177 2.681869 20.377668 122.628588 -75.707763 3.217779 -1.872044 1.916529 214.573275 50.602744 87.117123 2.656018 -1.528782 1.514594 226.395062 42.058495 71.828885 2.020887 -1.154069 1.115149 0.000001 0.000003 0.000001 9.109322 -0.518023 2.259924 166.792386 -29.978417 133.189085 3.699993 -0.000054 -0.000257 -13.800211 -144.169106 -40.992750 2.849962 -0.000016 0.000426 -7.177179 -150.273587 333.403909 2.774873 -0.000032 -0.000025 0.000002 -0.000000 -0.000001 9.533401 0.000034 0.000112 170.460334 -23.840821 136.825204 3.700018 -0.000014 -0.000174 165.943667 -27.634568 -233.257408 2.950046 -0.000008 -0.000008 -194.670008 -29.470084 127.852535 2.952866 0.000001 0.000066 0.000000 -0.000000 -0.000000 9.104486 -0.043055 -1.864992 175.647481 -29.396038 163.520043 3.149896 -0.000015 0.000127 172.471224 -17.251123 133.115018 2.949744 -0.000041 0.000143 -183.934522 -18.168788 155.762942 2.644328 0.000029 0.000053 -0.000001 -0.000001 -0.000001 8.077684 -0.486886 -3.806149 180.563250 -45.960534 182.412086 3.599661 0.000092 0.014860 7.614064 -156.581240 36.852559 2.099715 0.000042 0.007829 -175.811624 -22.789440 202.145118 2.125511 0.000003 0.007518 -0.000000 -0.000002 0.000000 -8.207786 -6.751667 -1.599560 -0.077001 -0.000003 0.000080 -0.000002 -44.370110 0.345938 0.153719 -0.000000 -0.000000 0.000000 -44.423679 -3.043532 -0.076700 0.000000 -0.000002 -0.000006 -8.728667 10.710559 -0.000009 -0.000000 -0.000000 -0.000001 -0.000679 9.278123 0.000000 -0.000000 -0.000000 8.207792 -6.751710 -1.599556 -0.074518 -0.000003 0.000081 -0.000002 -44.370014 0.346960 0.148822 0.000002 0.000000 -0.000001 -44.423664 -3.044403 -0.074314 0.000000 -0.000002 -0.000004 -8.728671 10.710558 0.000007 -0.000000 -0.000000 0.000000 -0.000680 9.278137 -0.000000 0.000000 -0.000001 
